<svg xmlns="http://www.w3.org/2000/svg" viewBox="0 0 720 300" role="img" aria-label="AI agent training from screenshots and rubrics">
  <rect width="720" height="300" rx="18" fill="#f8fafc"/>
  <rect x="28" y="38" width="190" height="180" rx="12" fill="#0f172a"/>
  <rect x="46" y="60" width="154" height="16" rx="4" fill="#334155"/>
  <path d="M54 112h128M54 142h88M54 172h118" stroke="#38bdf8" stroke-width="8" stroke-linecap="round"/>
  <circle cx="182" cy="202" r="9" fill="#f97316"/>
  <path d="M230 130h84" stroke="#94a3b8" stroke-width="5" stroke-dasharray="9 8"/>
  <polygon points="314,130 296,120 296,140" fill="#94a3b8"/>
  <rect x="336" y="38" width="150" height="180" rx="12" fill="#ffffff" stroke="#cbd5e1" stroke-width="3"/>
  <text x="360" y="72" font-family="Arial" font-size="22" font-weight="700" fill="#0f172a">rubric</text>
  <path d="M360 106l12 12 24-28M360 146l12 12 24-28M360 186l12 12 24-28" fill="none" stroke="#0f766e" stroke-width="7" stroke-linecap="round" stroke-linejoin="round"/>
  <path d="M500 130h74" stroke="#94a3b8" stroke-width="5" stroke-dasharray="9 8"/>
  <polygon points="574,130 556,120 556,140" fill="#94a3b8"/>
  <rect x="588" y="60" width="92" height="92" rx="18" fill="#dbeafe" stroke="#2563eb" stroke-width="4"/>
  <circle cx="618" cy="104" r="9" fill="#2563eb"/>
  <circle cx="650" cy="104" r="9" fill="#2563eb"/>
  <path d="M612 132h44" stroke="#2563eb" stroke-width="6" stroke-linecap="round"/>
  <path d="M634 152v52M606 178h56" stroke="#2563eb" stroke-width="8" stroke-linecap="round"/>
  <text x="42" y="258" font-family="Arial" font-size="20" font-weight="700" fill="#334155">screen</text>
  <text x="354" y="258" font-family="Arial" font-size="20" font-weight="700" fill="#334155">human review</text>
  <text x="590" y="258" font-family="Arial" font-size="20" font-weight="700" fill="#334155">future agent</text>
</svg>
