<svg xmlns="http://www.w3.org/2000/svg" viewBox="0 0 720 300" role="img" aria-label="Field geophysics survey comparison with uncertainty">
  <rect width="720" height="300" rx="18" fill="#f8fafc"/>
  <rect x="34" y="54" width="170" height="142" rx="12" fill="#fee2e2"/><rect x="232" y="54" width="170" height="142" rx="12" fill="#dcfce7"/><rect x="430" y="54" width="170" height="142" rx="12" fill="#dbeafe"/>
  <path d="M54 150c42-58 78-52 132-10" fill="none" stroke="#ef4444" stroke-width="7" stroke-linecap="round"/>
  <path d="M252 166c32-26 52-72 92-76 20-2 30 10 40 24" fill="none" stroke="#0f766e" stroke-width="7" stroke-linecap="round"/>
  <path d="M450 142c32-18 64-20 102-12 18 4 28 12 38 22" fill="none" stroke="#2563eb" stroke-width="7" stroke-linecap="round"/>
  <circle cx="636" cy="124" r="34" fill="#ffffff" stroke="#f97316" stroke-width="5"/>
  <text x="624" y="136" font-family="Arial" font-size="38" font-weight="700" fill="#f97316">?</text>
  <text x="68" y="226" font-family="Arial" font-size="18" font-weight="700" fill="#7f1d1d">gravity</text>
  <text x="278" y="226" font-family="Arial" font-size="18" font-weight="700" fill="#14532d">EM / ERT</text>
  <text x="474" y="226" font-family="Arial" font-size="18" font-weight="700" fill="#1e3a8a">seismic</text>
  <text x="540" y="264" font-family="Arial" font-size="18" font-weight="700" fill="#7c2d12">expert review</text>
</svg>
