<svg xmlns="http://www.w3.org/2000/svg" viewBox="0 0 760 420" role="img" aria-label="North Slope energy screening talk track">
  <rect width="760" height="420" rx="18" fill="#f8fafc"/>
  <text x="36" y="48" font-family="Arial" font-size="25" font-weight="800" fill="#0f172a">public sources -> feature table -> review queue</text>
  <g transform="translate(46 82)">
    <rect x="0" y="18" width="170" height="78" rx="12" fill="#eff6ff" stroke="#93c5fd" stroke-width="3"/>
    <text x="24" y="50" font-family="Arial" font-size="18" font-weight="800" fill="#1e3a8a">maps</text>
    <text x="24" y="75" font-family="Arial" font-size="18" font-weight="800" fill="#1e3a8a">papers</text>
    <rect x="0" y="118" width="170" height="78" rx="12" fill="#f0fdfa" stroke="#5eead4" stroke-width="3"/>
    <text x="24" y="150" font-family="Arial" font-size="18" font-weight="800" fill="#134e4a">wells</text>
    <text x="24" y="175" font-family="Arial" font-size="18" font-weight="800" fill="#134e4a">logs</text>
    <path d="M190 64h116M190 160h116" stroke="#94a3b8" stroke-width="5" stroke-dasharray="9 8"/>
    <rect x="326" y="28" width="190" height="160" rx="14" fill="#ffffff" stroke="#cbd5e1" stroke-width="3"/>
    <line x1="356" y1="58" x2="486" y2="58" stroke="#64748b" stroke-width="5"/>
    <line x1="356" y1="92" x2="486" y2="92" stroke="#64748b" stroke-width="5"/>
    <line x1="356" y1="126" x2="486" y2="126" stroke="#64748b" stroke-width="5"/>
    <line x1="356" y1="160" x2="486" y2="160" stroke="#64748b" stroke-width="5"/>
    <text x="354" y="220" font-family="Arial" font-size="18" font-weight="800" fill="#334155">trusted features</text>
    <path d="M530 108h88" stroke="#94a3b8" stroke-width="5" stroke-dasharray="9 8"/>
    <polygon points="618,108 598,96 598,120" fill="#94a3b8"/>
    <g transform="translate(632 32)">
      <circle cx="36" cy="30" r="25" fill="#22c55e"/>
      <circle cx="36" cy="76" r="25" fill="#f59e0b"/>
      <circle cx="36" cy="122" r="25" fill="#ef4444"/>
      <text x="-22" y="176" font-family="Arial" font-size="18" font-weight="800" fill="#334155">ranked</text>
    </g>
  </g>
  <g transform="translate(92 328)">
    <rect x="0" y="0" width="160" height="44" rx="22" fill="#fff7ed" stroke="#fdba74" stroke-width="2"/>
    <text x="26" y="28" font-family="Arial" font-size="17" font-weight="800" fill="#7c2d12">provenance</text>
    <rect x="188" y="0" width="160" height="44" rx="22" fill="#eff6ff" stroke="#93c5fd" stroke-width="2"/>
    <text x="232" y="28" font-family="Arial" font-size="17" font-weight="800" fill="#1e3a8a">physics</text>
    <rect x="376" y="0" width="160" height="44" rx="22" fill="#f0fdfa" stroke="#5eead4" stroke-width="2"/>
    <text x="408" y="28" font-family="Arial" font-size="17" font-weight="800" fill="#134e4a">expert review</text>
  </g>
</svg>
