<svg xmlns="http://www.w3.org/2000/svg" viewBox="0 0 720 300" role="img" aria-label="North Slope public data to interactive 3D screening">
  <rect width="720" height="300" rx="18" fill="#f8fafc"/>
  <text x="38" y="46" font-family="Arial, sans-serif" font-size="32" font-weight="800" fill="#0f172a">Public Data To 3D Screening</text>
  <text x="40" y="70" font-family="Arial, sans-serif" font-size="15" fill="#64748b">Four horizons + public wells + assessment context</text>

  <g transform="translate(38 82)">
    <path d="M18 46 266 12 424 58 176 94z" fill="#4daf4a" fill-opacity="0.7" stroke="#2f7d32" stroke-width="3"/>
    <path d="M18 82 266 48 424 94 176 130z" fill="#377eb8" fill-opacity="0.72" stroke="#1d4f91" stroke-width="3"/>
    <path d="M18 120 266 86 424 132 176 168z" fill="#ff7f00" fill-opacity="0.72" stroke="#b45309" stroke-width="3"/>
    <path d="M18 160 266 126 424 172 176 208z" fill="#984ea3" fill-opacity="0.72" stroke="#6b3074" stroke-width="3"/>

    <path d="M72 22v166M154 10v168M250 8v152M340 34v150" stroke="#111827" stroke-width="4"/>
    <circle cx="72" cy="22" r="6" fill="#111827"/>
    <circle cx="154" cy="10" r="6" fill="#111827"/>
    <circle cx="250" cy="8" r="6" fill="#111827"/>
    <circle cx="340" cy="34" r="6" fill="#111827"/>

    <path d="M34 32c96-28 218-22 354 20" fill="none" stroke="#f97316" stroke-width="4" stroke-dasharray="9 7"/>
    <path d="M294 83 360 102 338 139 272 120z" fill="#fde047" fill-opacity="0.72" stroke="#ca8a04" stroke-width="3">
      <animate attributeName="fill-opacity" values="0.35;0.85;0.35" dur="2.4s" repeatCount="indefinite"/>
    </path>
  </g>

  <g transform="translate(500 92)">
    <rect width="180" height="138" rx="14" fill="#ffffff" stroke="#cbd5e1" stroke-width="3"/>
    <circle cx="24" cy="30" r="7" fill="#4daf4a"/>
    <text x="40" y="36" font-family="Arial, sans-serif" font-size="17" font-weight="700" fill="#334155">Topography</text>
    <circle cx="24" cy="60" r="7" fill="#377eb8"/>
    <text x="40" y="66" font-family="Arial, sans-serif" font-size="17" font-weight="700" fill="#334155">LCU</text>
    <circle cx="24" cy="90" r="7" fill="#ff7f00"/>
    <text x="40" y="96" font-family="Arial, sans-serif" font-size="17" font-weight="700" fill="#334155">Shublik</text>
    <circle cx="24" cy="120" r="7" fill="#984ea3"/>
    <text x="40" y="126" font-family="Arial, sans-serif" font-size="17" font-weight="700" fill="#334155">Basement</text>
  </g>

  <rect x="500" y="244" width="180" height="34" rx="17" fill="#fff7ed" stroke="#f97316" stroke-width="2"/>
  <text x="520" y="266" font-family="Arial, sans-serif" font-size="15" font-weight="800" fill="#9a3412">SCREEN, NOT PREDICTION</text>
</svg>
