<svg xmlns="http://www.w3.org/2000/svg" viewBox="0 0 720 300" role="img" aria-label="Rock properties and instrument surveys to 3D resource map">
  <rect width="720" height="300" rx="18" fill="#f0fdfa"/>
  <rect x="36" y="50" width="176" height="178" rx="12" fill="#ffffff" stroke="#99f6e4" stroke-width="3"/>
  <text x="58" y="82" font-family="Arial" font-size="18" font-weight="700" fill="#134e4a">ranges</text>
  <rect x="58" y="106" width="112" height="14" rx="7" fill="#f97316"/><rect x="58" y="136" width="88" height="14" rx="7" fill="#2563eb"/><rect x="58" y="166" width="132" height="14" rx="7" fill="#0f766e"/>
  <path d="M238 138h74" stroke="#94a3b8" stroke-width="5" stroke-dasharray="9 8"/><polygon points="312,138 294,128 294,148" fill="#94a3b8"/>
  <g transform="translate(336 62)">
    <path d="M0 128 120 80 238 128 118 176z" fill="#ffffff" stroke="#0f766e" stroke-width="4"/>
    <path d="M0 128V72L120 24v56z" fill="#bbf7d0" stroke="#0f766e" stroke-width="3"/>
    <path d="M120 80V24l118 48v56z" fill="#bfdbfe" stroke="#2563eb" stroke-width="3"/>
    <path d="M46 110 164 62M84 148 204 98" stroke="#f97316" stroke-width="6" opacity="0.85"/>
  </g>
  <text x="348" y="258" font-family="Arial" font-size="20" font-weight="700" fill="#134e4a">overlap grids -> 3D rock model</text>
</svg>
