<svg xmlns="http://www.w3.org/2000/svg" viewBox="0 0 760 420" role="img" aria-label="Rock classification multimodal talk track">
  <rect width="760" height="420" rx="18" fill="#f8fafc"/>
  <text x="36" y="48" font-family="Arial" font-size="25" font-weight="800" fill="#0f172a">image + chemistry + map -> label with evidence</text>
  <g transform="translate(44 88)">
    <rect x="0" y="0" width="152" height="132" rx="14" fill="#ffffff" stroke="#cbd5e1" stroke-width="3"/>
    <circle cx="56" cy="54" r="24" fill="#f97316" opacity="0.72"/>
    <circle cx="92" cy="76" r="28" fill="#2563eb" opacity="0.62"/>
    <path d="M22 104c38-22 72 18 108-8" fill="none" stroke="#0f766e" stroke-width="6"/>
    <text x="27" y="166" font-family="Arial" font-size="18" font-weight="800" fill="#334155">thin section</text>
    <rect x="198" y="0" width="152" height="132" rx="14" fill="#ffffff" stroke="#cbd5e1" stroke-width="3"/>
    <polyline points="226,104 252,74 282,88 310,42 332,62" fill="none" stroke="#ef4444" stroke-width="6"/>
    <line x1="222" y1="104" x2="336" y2="104" stroke="#94a3b8" stroke-width="3"/>
    <line x1="222" y1="28" x2="222" y2="104" stroke="#94a3b8" stroke-width="3"/>
    <text x="220" y="166" font-family="Arial" font-size="18" font-weight="800" fill="#334155">chemistry</text>
    <rect x="396" y="0" width="152" height="132" rx="14" fill="#ffffff" stroke="#cbd5e1" stroke-width="3"/>
    <rect x="420" y="30" width="32" height="32" fill="#22c55e"/>
    <rect x="456" y="30" width="32" height="32" fill="#facc15"/>
    <rect x="492" y="30" width="32" height="32" fill="#38bdf8"/>
    <rect x="420" y="66" width="32" height="32" fill="#f97316"/>
    <rect x="456" y="66" width="32" height="32" fill="#22c55e"/>
    <rect x="492" y="66" width="32" height="32" fill="#f43f5e"/>
    <text x="432" y="166" font-family="Arial" font-size="18" font-weight="800" fill="#334155">map grid</text>
    <path d="M558 66h80" stroke="#94a3b8" stroke-width="5" stroke-dasharray="9 8"/>
    <polygon points="638,66 618,54 618,78" fill="#94a3b8"/>
    <rect x="652" y="8" width="72" height="116" rx="14" fill="#0f766e"/>
    <text x="668" y="56" font-family="Arial" font-size="17" font-weight="900" fill="#ffffff">ML</text>
    <text x="665" y="84" font-family="Arial" font-size="16" font-weight="800" fill="#ccfbf1">review</text>
  </g>
  <g transform="translate(96 314)">
    <circle cx="0" cy="0" r="11" fill="#0f766e"/>
    <text x="22" y="6" font-family="Arial" font-size="18" font-weight="800" fill="#334155">class probability</text>
    <circle cx="214" cy="0" r="11" fill="#2563eb"/>
    <text x="236" y="6" font-family="Arial" font-size="18" font-weight="800" fill="#334155">evidence cues</text>
    <circle cx="410" cy="0" r="11" fill="#f97316"/>
    <text x="432" y="6" font-family="Arial" font-size="18" font-weight="800" fill="#334155">expert label audit</text>
  </g>
</svg>
