<svg xmlns="http://www.w3.org/2000/svg" viewBox="0 0 760 420" role="img" aria-label="Seismic AI talk track">
  <rect width="760" height="420" rx="18" fill="#f8fafc"/>
  <text x="36" y="48" font-family="Arial" font-size="25" font-weight="800" fill="#0f172a">waveform -> pick -> confidence -> override</text>
  <g transform="translate(38 82)">
    <rect width="684" height="172" rx="14" fill="#ffffff" stroke="#cbd5e1" stroke-width="3"/>
    <path d="M28 92c17-45 31 54 48 0s32-58 50 0 35 63 54 0 35-58 55 0 33 53 49 0 32-50 50 0 34 58 54 0 34-48 52 0 30 42 44 0" fill="none" stroke="#334155" stroke-width="5"/>
    <path d="M30 126c20-24 33 30 50 0s31-33 50 0 34 35 54 0 34-32 55 0 32 31 49 0 32-29 50 0 34 34 54 0 34-28 52 0 29 25 44 0" fill="none" stroke="#94a3b8" stroke-width="4"/>
    <rect x="224" y="40" width="42" height="110" rx="8" fill="#22c55e" opacity="0.17"/>
    <line x1="245" y1="34" x2="245" y2="154" stroke="#16a34a" stroke-width="6"/>
    <text x="207" y="164" font-family="Arial" font-size="17" font-weight="800" fill="#166534">model pick</text>
    <rect x="425" y="42" width="72" height="108" rx="10" fill="#facc15" opacity="0.26"/>
    <line x1="461" y1="34" x2="461" y2="156" stroke="#ca8a04" stroke-width="5" stroke-dasharray="8 7"/>
    <text x="392" y="164" font-family="Arial" font-size="17" font-weight="800" fill="#854d0e">low confidence</text>
  </g>
  <g transform="translate(64 292)">
    <circle cx="0" cy="0" r="12" fill="#0f766e"/>
    <path d="M16 0h116" stroke="#94a3b8" stroke-width="5" stroke-dasharray="9 8"/>
    <circle cx="146" cy="0" r="12" fill="#2563eb"/>
    <path d="M162 0h116" stroke="#94a3b8" stroke-width="5" stroke-dasharray="9 8"/>
    <circle cx="292" cy="0" r="12" fill="#f59e0b"/>
    <path d="M308 0h116" stroke="#94a3b8" stroke-width="5" stroke-dasharray="9 8"/>
    <circle cx="438" cy="0" r="12" fill="#ef4444"/>
    <path d="M454 0h116" stroke="#94a3b8" stroke-width="5" stroke-dasharray="9 8"/>
    <circle cx="584" cy="0" r="12" fill="#111827"/>
    <text x="-28" y="42" font-family="Arial" font-size="18" font-weight="800" fill="#334155">signal</text>
    <text x="111" y="42" font-family="Arial" font-size="18" font-weight="800" fill="#334155">AI pick</text>
    <text x="252" y="42" font-family="Arial" font-size="18" font-weight="800" fill="#334155">QA</text>
    <text x="397" y="42" font-family="Arial" font-size="18" font-weight="800" fill="#334155">flag</text>
    <text x="530" y="42" font-family="Arial" font-size="18" font-weight="800" fill="#334155">human call</text>
  </g>
</svg>
