<svg xmlns="http://www.w3.org/2000/svg" viewBox="0 0 760 420" role="img" aria-label="Valles uncertainty data fusion talk track">
  <rect width="760" height="420" rx="18" fill="#f8fafc"/>
  <text x="36" y="48" font-family="Arial" font-size="25" font-weight="800" fill="#0f172a">agreement + conflict + uncertainty stay visible</text>
  <g transform="translate(56 88)">
    <rect x="0" y="0" width="650" height="210" rx="16" fill="#ffffff" stroke="#cbd5e1" stroke-width="3"/>
    <path d="M48 118c44-74 104-98 170-58s124 110 192 42 120-62 190-10" fill="none" stroke="#2563eb" stroke-width="18" opacity="0.22"/>
    <path d="M50 142c58-28 118-16 168 8s98 18 150-38 120-50 208 24" fill="none" stroke="#f97316" stroke-width="18" opacity="0.24"/>
    <path d="M80 72c72 34 116 36 172 2s114-34 174 4 104 30 150-12" fill="none" stroke="#0f766e" stroke-width="18" opacity="0.22"/>
    <circle cx="342" cy="102" r="54" fill="#22c55e" opacity="0.32"/>
    <circle cx="506" cy="130" r="42" fill="#ef4444" opacity="0.26"/>
    <circle cx="184" cy="86" r="38" fill="#94a3b8" opacity="0.36"/>
    <text x="304" y="108" font-family="Arial" font-size="18" font-weight="900" fill="#166534">agree</text>
    <text x="466" y="136" font-family="Arial" font-size="18" font-weight="900" fill="#991b1b">conflict</text>
    <text x="136" y="92" font-family="Arial" font-size="18" font-weight="900" fill="#334155">unclear</text>
  </g>
  <g transform="translate(88 335)">
    <rect x="0" y="-24" width="132" height="46" rx="23" fill="#eff6ff" stroke="#93c5fd" stroke-width="2"/>
    <text x="34" y="5" font-family="Arial" font-size="17" font-weight="800" fill="#1e3a8a">gravity</text>
    <rect x="158" y="-24" width="132" height="46" rx="23" fill="#fff7ed" stroke="#fdba74" stroke-width="2"/>
    <text x="206" y="5" font-family="Arial" font-size="17" font-weight="800" fill="#7c2d12">EM</text>
    <rect x="316" y="-24" width="132" height="46" rx="23" fill="#f0fdfa" stroke="#5eead4" stroke-width="2"/>
    <text x="354" y="5" font-family="Arial" font-size="17" font-weight="800" fill="#134e4a">seismic</text>
    <rect x="474" y="-24" width="132" height="46" rx="23" fill="#f1f5f9" stroke="#cbd5e1" stroke-width="2"/>
    <text x="500" y="5" font-family="Arial" font-size="17" font-weight="800" fill="#334155">field notes</text>
  </g>
</svg>
